<svg width="1920" height="629" viewBox="0 0 1920 629" fill="none" xmlns="http://www.w3.org/2000/svg">
<g clip-path="url(#clip0_32_72)">
<path d="M0 647L64 622.962C128 599.823 256 550.399 384 479.184C512 406.622 640 312.267 768 335.407C896 359.444 1024 503.222 1152 551.073C1280 599.823 1408 550.399 1536 467.278C1664 384.156 1792 262.844 1856 203.76L1920 143.778V0H1856C1792 0 1664 0 1536 0C1408 0 1280 0 1152 0C1024 0 896 0 768 0C640 0 512 0 384 0C256 0 128 0 64 0H0V647Z" fill="#299626"/>
<path d="M639.087 488H637.087V490H639.087V488ZM709.859 488V490H711.859V488H709.859ZM709.859 469.744H711.859V467.744H709.859V469.744ZM661.229 469.744H659.229V471.744H661.229V469.744ZM661.229 444.739V442.739H659.229V444.739H661.229ZM706.024 444.739V446.739H708.024V444.739H706.024ZM706.024 426.483H708.024V424.483H706.024V426.483ZM661.229 426.483H659.229V428.483H661.229V426.483ZM661.229 401.528V399.528H659.229V401.528H661.229ZM709.655 401.528V403.528H711.655V401.528H709.655ZM709.655 383.273H711.655V381.273H709.655V383.273ZM639.087 383.273V381.273H637.087V383.273H639.087ZM639.087 490H709.859V486H639.087V490ZM711.859 488V469.744H707.859V488H711.859ZM709.859 467.744H661.229V471.744H709.859V467.744ZM663.229 469.744V444.739H659.229V469.744H663.229ZM661.229 446.739H706.024V442.739H661.229V446.739ZM708.024 444.739V426.483H704.024V444.739H708.024ZM706.024 424.483H661.229V428.483H706.024V424.483ZM663.229 426.483V401.528H659.229V426.483H663.229ZM661.229 403.528H709.655V399.528H661.229V403.528ZM711.655 401.528V383.273H707.655V401.528H711.655ZM709.655 381.273H639.087V385.273H709.655V381.273ZM637.087 383.273V488H641.087V383.273H637.087ZM727.259 488H725.259V490H727.259V488ZM749.401 488V490H751.401V488H749.401ZM749.401 450.875V448.875H747.401V450.875H749.401ZM765.56 450.875L767.324 449.932L766.758 448.875H765.56V450.875ZM785.401 488L783.637 488.943L784.202 490H785.401V488ZM809.844 488V490H813.216L811.599 487.041L809.844 488ZM787.599 447.295L786.811 445.458L784.79 446.325L785.844 448.255L787.599 447.295ZM727.259 383.273V381.273H725.259V383.273H727.259ZM749.401 433.08H747.401V435.08H749.401V433.08ZM749.401 401.375V399.375H747.401V401.375H749.401ZM727.259 490H749.401V486H727.259V490ZM751.401 488V450.875H747.401V488H751.401ZM749.401 452.875H765.56V448.875H749.401V452.875ZM763.796 451.818L783.637 488.943L787.164 487.057L767.324 449.932L763.796 451.818ZM785.401 490H809.844V486H785.401V490ZM811.599 487.041L789.354 446.336L785.844 448.255L808.089 488.959L811.599 487.041ZM788.388 449.133C801.108 443.674 808.111 432.522 808.111 417.483H804.111C804.111 431.081 797.92 440.689 786.811 445.458L788.388 449.133ZM808.111 417.483C808.111 406.621 804.508 397.5 797.621 391.107C790.751 384.73 780.834 381.273 768.577 381.273V385.273C780.098 385.273 788.948 388.514 794.9 394.039C800.835 399.548 804.111 407.533 804.111 417.483H808.111ZM768.577 381.273H727.259V385.273H768.577V381.273ZM725.259 383.273V488H729.259V383.273H725.259ZM751.401 433.08V401.375H747.401V433.08H751.401ZM749.401 403.375H764.332V399.375H749.401V403.375ZM764.332 403.375C770.469 403.375 774.662 404.742 777.303 407.029C779.891 409.27 781.304 412.671 781.304 417.483H785.304C785.304 411.863 783.623 407.21 779.921 404.005C776.272 400.846 770.979 399.375 764.332 399.375V403.375ZM781.304 417.483C781.304 422.263 779.897 425.518 777.347 427.636C774.725 429.813 770.553 431.08 764.435 431.08V435.08C770.999 435.08 776.261 433.738 779.903 430.713C783.617 427.627 785.304 423.084 785.304 417.483H781.304ZM764.435 431.08H749.401V435.08H764.435V431.08ZM821.759 488H819.759V490H821.759V488ZM843.901 488V490H845.901V488H843.901ZM843.901 450.875V448.875H841.901V450.875H843.901ZM860.06 450.875L861.824 449.932L861.258 448.875H860.06V450.875ZM879.901 488L878.137 488.943L878.702 490H879.901V488ZM904.344 488V490H907.716L906.099 487.041L904.344 488ZM882.099 447.295L881.311 445.458L879.29 446.325L880.344 448.255L882.099 447.295ZM821.759 383.273V381.273H819.759V383.273H821.759ZM843.901 433.08H841.901V435.08H843.901V433.08ZM843.901 401.375V399.375H841.901V401.375H843.901ZM821.759 490H843.901V486H821.759V490ZM845.901 488V450.875H841.901V488H845.901ZM843.901 452.875H860.06V448.875H843.901V452.875ZM858.296 451.818L878.137 488.943L881.664 487.057L861.824 449.932L858.296 451.818ZM879.901 490H904.344V486H879.901V490ZM906.099 487.041L883.854 446.336L880.344 448.255L902.589 488.959L906.099 487.041ZM882.888 449.133C895.608 443.674 902.611 432.522 902.611 417.483H898.611C898.611 431.081 892.42 440.689 881.311 445.458L882.888 449.133ZM902.611 417.483C902.611 406.621 899.008 397.5 892.121 391.107C885.251 384.73 875.334 381.273 863.077 381.273V385.273C874.598 385.273 883.448 388.514 889.4 394.039C895.335 399.548 898.611 407.533 898.611 417.483H902.611ZM863.077 381.273H821.759V385.273H863.077V381.273ZM819.759 383.273V488H823.759V383.273H819.759ZM845.901 433.08V401.375H841.901V433.08H845.901ZM843.901 403.375H858.832V399.375H843.901V403.375ZM858.832 403.375C864.969 403.375 869.162 404.742 871.803 407.029C874.391 409.27 875.804 412.671 875.804 417.483H879.804C879.804 411.863 878.123 407.21 874.421 404.005C870.772 400.846 865.479 399.375 858.832 399.375V403.375ZM875.804 417.483C875.804 422.263 874.397 425.518 871.847 427.636C869.225 429.813 865.053 431.08 858.935 431.08V435.08C865.499 435.08 870.761 433.738 874.403 430.713C878.117 427.627 879.804 423.084 879.804 417.483H875.804ZM858.935 431.08H843.901V435.08H858.935V431.08ZM1014.5 435.636C1014.5 418.086 1009.04 404.109 999.834 394.506C990.625 384.903 977.822 379.841 963.457 379.841V383.841C976.86 383.841 988.577 388.546 996.946 397.275C1005.32 406.005 1010.5 418.926 1010.5 435.636H1014.5ZM963.457 379.841C949.019 379.841 936.214 384.901 927.022 394.508C917.833 404.112 912.418 418.09 912.418 435.636H916.418C916.418 418.922 921.562 406.001 929.912 397.273C938.261 388.548 949.976 383.841 963.457 383.841V379.841ZM912.418 435.636C912.418 453.108 917.834 467.084 927.021 476.706C936.21 486.33 949.014 491.432 963.457 491.432V487.432C949.98 487.432 938.265 482.69 929.914 473.943C921.561 465.194 916.418 452.272 916.418 435.636H912.418ZM963.457 491.432C977.822 491.432 990.625 486.37 999.834 476.766C1009.04 467.164 1014.5 453.187 1014.5 435.636H1010.5C1010.5 452.347 1005.32 465.268 996.946 473.998C988.577 482.727 976.86 487.432 963.457 487.432V491.432ZM988.048 435.636C988.048 446.444 985.481 454.499 981.215 459.812C976.992 465.07 970.943 467.847 963.457 467.847V471.847C972.029 471.847 979.275 468.615 984.334 462.316C989.348 456.072 992.048 447.022 992.048 435.636H988.048ZM963.457 467.847C955.945 467.847 949.897 465.069 945.682 459.813C941.422 454.501 938.866 446.446 938.866 435.636H934.866C934.866 447.02 937.553 456.07 942.561 462.315C947.614 468.616 954.862 471.847 963.457 471.847V467.847ZM938.866 435.636C938.866 424.827 941.422 416.772 945.682 411.46C949.897 406.204 955.945 403.426 963.457 403.426V399.426C954.862 399.426 947.614 402.657 942.561 408.958C937.553 415.203 934.866 424.253 934.866 435.636H938.866ZM963.457 403.426C970.943 403.426 976.992 406.203 981.215 411.461C985.481 416.773 988.048 424.829 988.048 435.636H992.048C992.048 424.251 989.348 415.201 984.334 408.956C979.275 402.658 972.029 399.426 963.457 399.426V403.426Z" fill="black"/>
<mask id="mask0_32_72" style="mask-type:alpha" maskUnits="userSpaceOnUse" x="0" y="0" width="1920" height="647">
<path d="M0 647L64 622.962C128 599.823 256 550.399 384 479.184C512 406.622 640 312.267 768 335.407C896 359.444 1024 503.222 1152 551.073C1280 599.823 1408 550.399 1536 467.278C1664 384.156 1792 262.844 1856 203.76L1920 143.778V0H1856C1792 0 1664 0 1536 0C1408 0 1280 0 1152 0C1024 0 896 0 768 0C640 0 512 0 384 0C256 0 128 0 64 0H0V647Z" fill="#299626"/>
</mask>
<g mask="url(#mask0_32_72)">
<path d="M639.087 488H637.087V490H639.087V488ZM709.859 488V490H711.859V488H709.859ZM709.859 469.744H711.859V467.744H709.859V469.744ZM661.229 469.744H659.229V471.744H661.229V469.744ZM661.229 444.739V442.739H659.229V444.739H661.229ZM706.024 444.739V446.739H708.024V444.739H706.024ZM706.024 426.483H708.024V424.483H706.024V426.483ZM661.229 426.483H659.229V428.483H661.229V426.483ZM661.229 401.528V399.528H659.229V401.528H661.229ZM709.655 401.528V403.528H711.655V401.528H709.655ZM709.655 383.273H711.655V381.273H709.655V383.273ZM639.087 383.273V381.273H637.087V383.273H639.087ZM639.087 490H709.859V486H639.087V490ZM711.859 488V469.744H707.859V488H711.859ZM709.859 467.744H661.229V471.744H709.859V467.744ZM663.229 469.744V444.739H659.229V469.744H663.229ZM661.229 446.739H706.024V442.739H661.229V446.739ZM708.024 444.739V426.483H704.024V444.739H708.024ZM706.024 424.483H661.229V428.483H706.024V424.483ZM663.229 426.483V401.528H659.229V426.483H663.229ZM661.229 403.528H709.655V399.528H661.229V403.528ZM711.655 401.528V383.273H707.655V401.528H711.655ZM709.655 381.273H639.087V385.273H709.655V381.273ZM637.087 383.273V488H641.087V383.273H637.087ZM727.259 488H725.259V490H727.259V488ZM749.401 488V490H751.401V488H749.401ZM749.401 450.875V448.875H747.401V450.875H749.401ZM765.56 450.875L767.324 449.932L766.758 448.875H765.56V450.875ZM785.401 488L783.637 488.943L784.202 490H785.401V488ZM809.844 488V490H813.216L811.599 487.041L809.844 488ZM787.599 447.295L786.811 445.458L784.79 446.325L785.844 448.255L787.599 447.295ZM727.259 383.273V381.273H725.259V383.273H727.259ZM749.401 433.08H747.401V435.08H749.401V433.08ZM749.401 401.375V399.375H747.401V401.375H749.401ZM727.259 490H749.401V486H727.259V490ZM751.401 488V450.875H747.401V488H751.401ZM749.401 452.875H765.56V448.875H749.401V452.875ZM763.796 451.818L783.637 488.943L787.164 487.057L767.324 449.932L763.796 451.818ZM785.401 490H809.844V486H785.401V490ZM811.599 487.041L789.354 446.336L785.844 448.255L808.089 488.959L811.599 487.041ZM788.388 449.133C801.108 443.674 808.111 432.522 808.111 417.483H804.111C804.111 431.081 797.92 440.689 786.811 445.458L788.388 449.133ZM808.111 417.483C808.111 406.621 804.508 397.5 797.621 391.107C790.751 384.73 780.834 381.273 768.577 381.273V385.273C780.098 385.273 788.948 388.514 794.9 394.039C800.835 399.548 804.111 407.533 804.111 417.483H808.111ZM768.577 381.273H727.259V385.273H768.577V381.273ZM725.259 383.273V488H729.259V383.273H725.259ZM751.401 433.08V401.375H747.401V433.08H751.401ZM749.401 403.375H764.332V399.375H749.401V403.375ZM764.332 403.375C770.469 403.375 774.662 404.742 777.303 407.029C779.891 409.27 781.304 412.671 781.304 417.483H785.304C785.304 411.863 783.623 407.21 779.921 404.005C776.272 400.846 770.979 399.375 764.332 399.375V403.375ZM781.304 417.483C781.304 422.263 779.897 425.518 777.347 427.636C774.725 429.813 770.553 431.08 764.435 431.08V435.08C770.999 435.08 776.261 433.738 779.903 430.713C783.617 427.627 785.304 423.084 785.304 417.483H781.304ZM764.435 431.08H749.401V435.08H764.435V431.08ZM821.759 488H819.759V490H821.759V488ZM843.901 488V490H845.901V488H843.901ZM843.901 450.875V448.875H841.901V450.875H843.901ZM860.06 450.875L861.824 449.932L861.258 448.875H860.06V450.875ZM879.901 488L878.137 488.943L878.702 490H879.901V488ZM904.344 488V490H907.716L906.099 487.041L904.344 488ZM882.099 447.295L881.311 445.458L879.29 446.325L880.344 448.255L882.099 447.295ZM821.759 383.273V381.273H819.759V383.273H821.759ZM843.901 433.08H841.901V435.08H843.901V433.08ZM843.901 401.375V399.375H841.901V401.375H843.901ZM821.759 490H843.901V486H821.759V490ZM845.901 488V450.875H841.901V488H845.901ZM843.901 452.875H860.06V448.875H843.901V452.875ZM858.296 451.818L878.137 488.943L881.664 487.057L861.824 449.932L858.296 451.818ZM879.901 490H904.344V486H879.901V490ZM906.099 487.041L883.854 446.336L880.344 448.255L902.589 488.959L906.099 487.041ZM882.888 449.133C895.608 443.674 902.611 432.522 902.611 417.483H898.611C898.611 431.081 892.42 440.689 881.311 445.458L882.888 449.133ZM902.611 417.483C902.611 406.621 899.008 397.5 892.121 391.107C885.251 384.73 875.334 381.273 863.077 381.273V385.273C874.598 385.273 883.448 388.514 889.4 394.039C895.335 399.548 898.611 407.533 898.611 417.483H902.611ZM863.077 381.273H821.759V385.273H863.077V381.273ZM819.759 383.273V488H823.759V383.273H819.759ZM845.901 433.08V401.375H841.901V433.08H845.901ZM843.901 403.375H858.832V399.375H843.901V403.375ZM858.832 403.375C864.969 403.375 869.162 404.742 871.803 407.029C874.391 409.27 875.804 412.671 875.804 417.483H879.804C879.804 411.863 878.123 407.21 874.421 404.005C870.772 400.846 865.479 399.375 858.832 399.375V403.375ZM875.804 417.483C875.804 422.263 874.397 425.518 871.847 427.636C869.225 429.813 865.053 431.08 858.935 431.08V435.08C865.499 435.08 870.761 433.738 874.403 430.713C878.117 427.627 879.804 423.084 879.804 417.483H875.804ZM858.935 431.08H843.901V435.08H858.935V431.08ZM1014.5 435.636C1014.5 418.086 1009.04 404.109 999.834 394.506C990.625 384.903 977.822 379.841 963.457 379.841V383.841C976.86 383.841 988.577 388.546 996.946 397.275C1005.32 406.005 1010.5 418.926 1010.5 435.636H1014.5ZM963.457 379.841C949.019 379.841 936.214 384.901 927.022 394.508C917.833 404.112 912.418 418.09 912.418 435.636H916.418C916.418 418.922 921.562 406.001 929.912 397.273C938.261 388.548 949.976 383.841 963.457 383.841V379.841ZM912.418 435.636C912.418 453.108 917.834 467.084 927.021 476.706C936.21 486.33 949.014 491.432 963.457 491.432V487.432C949.98 487.432 938.265 482.69 929.914 473.943C921.561 465.194 916.418 452.272 916.418 435.636H912.418ZM963.457 491.432C977.822 491.432 990.625 486.37 999.834 476.766C1009.04 467.164 1014.5 453.187 1014.5 435.636H1010.5C1010.5 452.347 1005.32 465.268 996.946 473.998C988.577 482.727 976.86 487.432 963.457 487.432V491.432ZM988.048 435.636C988.048 446.444 985.481 454.499 981.215 459.812C976.992 465.07 970.943 467.847 963.457 467.847V471.847C972.029 471.847 979.275 468.615 984.334 462.316C989.348 456.072 992.048 447.022 992.048 435.636H988.048ZM963.457 467.847C955.945 467.847 949.897 465.069 945.682 459.813C941.422 454.501 938.866 446.446 938.866 435.636H934.866C934.866 447.02 937.553 456.07 942.561 462.315C947.614 468.616 954.862 471.847 963.457 471.847V467.847ZM938.866 435.636C938.866 424.827 941.422 416.772 945.682 411.46C949.897 406.204 955.945 403.426 963.457 403.426V399.426C954.862 399.426 947.614 402.657 942.561 408.958C937.553 415.203 934.866 424.253 934.866 435.636H938.866ZM963.457 403.426C970.943 403.426 976.992 406.203 981.215 411.461C985.481 416.773 988.048 424.829 988.048 435.636H992.048C992.048 424.251 989.348 415.201 984.334 408.956C979.275 402.658 972.029 399.426 963.457 399.426V403.426ZM1087.85 383.273L1089.85 383.327L1089.9 381.273H1087.85V383.273ZM1065.09 383.273V381.273H1063.03L1063.09 383.328L1065.09 383.273ZM1067.14 456.602L1065.14 456.658L1065.19 458.602H1067.14V456.602ZM1085.85 456.602V458.602H1087.8L1087.85 456.657L1085.85 456.602ZM1088.77 477.057L1090.77 477.072L1090.77 477.057L1090.77 477.042L1088.77 477.057ZM1064.22 477.057L1066.22 477.072L1066.22 477.057L1066.22 477.042L1064.22 477.057ZM1087.85 381.273H1065.09V385.273H1087.85V381.273ZM1063.09 383.328L1065.14 456.658L1069.14 456.547L1067.09 383.217L1063.09 383.328ZM1067.14 458.602H1085.85V454.602H1067.14V458.602ZM1087.85 456.657L1089.85 383.327L1085.85 383.218L1083.85 456.548L1087.85 456.657ZM1076.49 491.33C1084.13 491.33 1090.71 484.979 1090.77 477.072L1086.77 477.042C1086.72 482.737 1081.95 487.33 1076.49 487.33V491.33ZM1090.77 477.042C1090.71 469.226 1084.12 462.886 1076.49 462.886V466.886C1081.96 466.886 1086.72 471.49 1086.77 477.072L1090.77 477.042ZM1076.49 462.886C1068.67 462.886 1062.16 469.227 1062.22 477.072L1066.22 477.042C1066.18 471.489 1070.82 466.886 1076.49 466.886V462.886ZM1062.22 477.042C1062.16 484.978 1068.66 491.33 1076.49 491.33V487.33C1070.83 487.33 1066.18 482.738 1066.22 477.072L1062.22 477.042ZM1153.86 383.273H1155.86V381.273H1153.86V383.273ZM1133.05 383.273V381.273H1132.47L1131.98 381.583L1133.05 383.273ZM1107.12 399.688L1106.06 397.998L1105.12 398.587V399.688H1107.12ZM1107.12 419.324H1105.12V422.938L1108.19 421.018L1107.12 419.324ZM1131.11 404.29V402.29H1130.53L1130.05 402.595L1131.11 404.29ZM1131.72 404.29H1133.72V402.29H1131.72V404.29ZM1131.72 488H1129.72V490H1131.72V488ZM1153.86 488V490H1155.86V488H1153.86ZM1153.86 381.273H1133.05V385.273H1153.86V381.273ZM1131.98 381.583L1106.06 397.998L1108.19 401.377L1134.12 384.963L1131.98 381.583ZM1105.12 399.688V419.324H1109.12V399.688H1105.12ZM1108.19 421.018L1132.17 405.984L1130.05 402.595L1106.06 417.629L1108.19 421.018ZM1131.11 406.29H1131.72V402.29H1131.11V406.29ZM1129.72 404.29V488H1133.72V404.29H1129.72ZM1131.72 490H1153.86V486H1131.72V490ZM1155.86 488V383.273H1151.86V488H1155.86ZM1204.99 383.273L1206.99 383.327L1207.04 381.273H1204.99V383.273ZM1182.23 383.273V381.273H1180.17L1180.23 383.328L1182.23 383.273ZM1184.28 456.602L1182.28 456.658L1182.33 458.602H1184.28V456.602ZM1202.99 456.602V458.602H1204.94L1204.99 456.657L1202.99 456.602ZM1205.91 477.057L1207.91 477.072L1207.91 477.057L1207.91 477.042L1205.91 477.057ZM1181.36 477.057L1183.36 477.072L1183.36 477.057L1183.36 477.042L1181.36 477.057ZM1204.99 381.273H1182.23V385.273H1204.99V381.273ZM1180.23 383.328L1182.28 456.658L1186.28 456.547L1184.23 383.217L1180.23 383.328ZM1184.28 458.602H1202.99V454.602H1184.28V458.602ZM1204.99 456.657L1206.99 383.327L1202.99 383.218L1200.99 456.548L1204.99 456.657ZM1193.63 491.33C1201.27 491.33 1207.85 484.979 1207.91 477.072L1203.91 477.042C1203.86 482.737 1199.09 487.33 1193.63 487.33V491.33ZM1207.91 477.042C1207.85 469.226 1201.26 462.886 1193.63 462.886V466.886C1199.1 466.886 1203.87 471.49 1203.91 477.072L1207.91 477.042ZM1193.63 462.886C1185.81 462.886 1179.3 469.227 1179.36 477.072L1183.36 477.042C1183.32 471.489 1187.96 466.886 1193.63 466.886V462.886ZM1179.36 477.042C1179.3 484.978 1185.8 491.33 1193.63 491.33V487.33C1187.97 487.33 1183.32 482.738 1183.36 477.072L1179.36 477.042ZM1251.67 383.273L1253.67 383.327L1253.73 381.273H1251.67V383.273ZM1228.92 383.273V381.273H1226.86L1226.92 383.328L1228.92 383.273ZM1230.96 456.602L1228.97 456.658L1229.02 458.602H1230.96V456.602ZM1249.68 456.602V458.602H1251.63L1251.68 456.657L1249.68 456.602ZM1252.6 477.057L1254.6 477.072L1254.6 477.057L1254.6 477.042L1252.6 477.057ZM1228.05 477.057L1230.05 477.072L1230.05 477.057L1230.05 477.042L1228.05 477.057ZM1251.67 381.273H1228.92V385.273H1251.67V381.273ZM1226.92 383.328L1228.97 456.658L1232.96 456.547L1230.92 383.217L1226.92 383.328ZM1230.96 458.602H1249.68V454.602H1230.96V458.602ZM1251.68 456.657L1253.67 383.327L1249.68 383.218L1247.68 456.548L1251.68 456.657ZM1240.32 491.33C1247.96 491.33 1254.54 484.979 1254.6 477.072L1250.6 477.042C1250.55 482.737 1245.78 487.33 1240.32 487.33V491.33ZM1254.6 477.042C1254.54 469.226 1247.95 462.886 1240.32 462.886V466.886C1245.79 466.886 1250.55 471.49 1250.6 477.072L1254.6 477.042ZM1240.32 462.886C1232.5 462.886 1225.99 469.227 1226.05 477.072L1230.05 477.042C1230.01 471.489 1234.65 466.886 1240.32 466.886V462.886ZM1226.05 477.042C1225.99 484.978 1232.49 491.33 1240.32 491.33V487.33C1234.66 487.33 1230.01 482.738 1230.05 477.072L1226.05 477.042Z" fill="#F0F0F0"/>
</g>
</g>
<defs>
<clipPath id="clip0_32_72">
<rect width="1920" height="629" fill="white"/>
</clipPath>
</defs>
</svg>
