<svg width="1920" height="629" fill="none" xmlns="http://www.w3.org/2000/svg"><g clip-path="url(#a)"><path d="m0 647 64-24.038c64-23.139 192-72.563 320-143.778 128-72.562 256-166.917 384-143.777 128 24.037 256 167.815 384 215.666 128 48.75 256-.674 384-83.795 128-83.122 256-204.434 320-263.518l64-59.982V0H0v647z" fill="#299626"/><path d="M639.087 488h-2v2h2v-2zm70.772 0v2h2v-2h-2zm0-18.256h2v-2h-2v2zm-48.63 0h-2v2h2v-2zm0-25.005v-2h-2v2h2zm44.795 0v2h2v-2h-2zm0-18.256h2v-2h-2v2zm-44.795 0h-2v2h2v-2zm0-24.955v-2h-2v2h2zm48.426 0v2h2v-2h-2zm0-18.255h2v-2h-2v2zm-70.568 0v-2h-2v2h2zm0 106.727h70.772v-4h-70.772v4zm72.772-2v-18.256h-4V488h4zm-2-20.256h-48.63v4h48.63v-4zm-46.63 2v-25.005h-4v25.005h4zm-2-23.005h44.795v-4h-44.795v4zm46.795-2v-18.256h-4v18.256h4zm-2-20.256h-44.795v4h44.795v-4zm-42.795 2v-24.955h-4v24.955h4zm-2-22.955h48.426v-4h-48.426v4zm50.426-2v-18.255h-4v18.255h4zm-2-20.255h-70.568v4h70.568v-4zm-72.568 2V488h4V383.273h-4zM727.259 488h-2v2h2v-2zm22.142 0v2h2v-2h-2zm0-37.125v-2h-2v2h2zm16.159 0 1.764-.943-.566-1.057h-1.198v2zM785.401 488l-1.764.943.565 1.057h1.199v-2zm24.443 0v2h3.372l-1.617-2.959-1.755.959zm-22.245-40.705-.788-1.837-2.021.867 1.054 1.93 1.755-.96zm-60.34-64.022v-2h-2v2h2zm22.142 49.807h-2v2h2v-2zm0-31.705v-2h-2v2h2zM727.259 490h22.142v-4h-22.142v4zm24.142-2v-37.125h-4V488h4zm-2-35.125h16.159v-4h-16.159v4zm14.395-1.057 19.841 37.125 3.527-1.886-19.84-37.125-3.528 1.886zM785.401 490h24.443v-4h-24.443v4zm26.198-2.959-22.245-40.705-3.51 1.919 22.245 40.704 3.51-1.918zm-23.211-37.908c12.72-5.459 19.723-16.611 19.723-31.65h-4c0 13.598-6.191 23.206-17.3 27.975l1.577 3.675zm19.723-31.65c0-10.862-3.603-19.983-10.49-26.376-6.87-6.377-16.787-9.834-29.044-9.834v4c11.521 0 20.371 3.241 26.323 8.766 5.935 5.509 9.211 13.494 9.211 23.444h4zm-39.534-36.21h-41.318v4h41.318v-4zm-43.318 2V488h4V383.273h-4zm26.142 49.807v-31.705h-4v31.705h4zm-2-29.705h14.931v-4h-14.931v4zm14.931 0c6.137 0 10.33 1.367 12.971 3.654 2.588 2.241 4.001 5.642 4.001 10.454h4c0-5.62-1.681-10.273-5.383-13.478-3.649-3.159-8.942-4.63-15.589-4.63v4zm16.972 14.108c0 4.78-1.407 8.035-3.957 10.153-2.622 2.177-6.794 3.444-12.912 3.444v4c6.564 0 11.826-1.342 15.468-4.367 3.714-3.086 5.401-7.629 5.401-13.23h-4zm-16.869 13.597h-15.034v4h15.034v-4zM821.759 488h-2v2h2v-2zm22.142 0v2h2v-2h-2zm0-37.125v-2h-2v2h2zm16.159 0 1.764-.943-.566-1.057h-1.198v2zM879.901 488l-1.764.943.565 1.057h1.199v-2zm24.443 0v2h3.372l-1.617-2.959-1.755.959zm-22.245-40.705-.788-1.837-2.021.867 1.054 1.93 1.755-.96zm-60.34-64.022v-2h-2v2h2zm22.142 49.807h-2v2h2v-2zm0-31.705v-2h-2v2h2zM821.759 490h22.142v-4h-22.142v4zm24.142-2v-37.125h-4V488h4zm-2-35.125h16.159v-4h-16.159v4zm14.395-1.057 19.841 37.125 3.527-1.886-19.84-37.125-3.528 1.886zM879.901 490h24.443v-4h-24.443v4zm26.198-2.959-22.245-40.705-3.51 1.919 22.245 40.704 3.51-1.918zm-23.211-37.908c12.72-5.459 19.723-16.611 19.723-31.65h-4c0 13.598-6.191 23.206-17.3 27.975l1.577 3.675zm19.723-31.65c0-10.862-3.603-19.983-10.49-26.376-6.87-6.377-16.787-9.834-29.044-9.834v4c11.521 0 20.371 3.241 26.323 8.766 5.935 5.509 9.211 13.494 9.211 23.444h4zm-39.534-36.21h-41.318v4h41.318v-4zm-43.318 2V488h4V383.273h-4zm26.142 49.807v-31.705h-4v31.705h4zm-2-29.705h14.931v-4h-14.931v4zm14.931 0c6.137 0 10.33 1.367 12.971 3.654 2.588 2.241 4.001 5.642 4.001 10.454h4c0-5.62-1.681-10.273-5.383-13.478-3.649-3.159-8.942-4.63-15.589-4.63v4zm16.972 14.108c0 4.78-1.407 8.035-3.957 10.153-2.622 2.177-6.794 3.444-12.912 3.444v4c6.564 0 11.826-1.342 15.468-4.367 3.714-3.086 5.401-7.629 5.401-13.23h-4zm-16.869 13.597h-15.034v4h15.034v-4zm155.565 4.556c0-17.55-5.46-31.527-14.666-41.13-9.209-9.603-22.012-14.665-36.377-14.665v4c13.403 0 25.12 4.705 33.489 13.434 8.374 8.73 13.554 21.651 13.554 38.361h4zm-51.043-55.795c-14.438 0-27.243 5.06-36.435 14.667-9.189 9.604-14.604 23.582-14.604 41.128h4c0-16.714 5.144-29.635 13.494-38.363 8.349-8.725 20.064-13.432 33.545-13.432v-4zm-51.039 55.795c0 17.472 5.416 31.448 14.603 41.07 9.189 9.624 21.993 14.726 36.436 14.726v-4c-13.477 0-25.192-4.742-33.543-13.489-8.353-8.749-13.496-21.671-13.496-38.307h-4zm51.039 55.796c14.365 0 27.168-5.062 36.377-14.666 9.206-9.602 14.666-23.579 14.666-41.13h-4c0 16.711-5.18 29.632-13.554 38.362-8.369 8.729-20.086 13.434-33.489 13.434v4zm24.591-55.796c0 10.808-2.567 18.863-6.833 24.176-4.223 5.258-10.272 8.035-17.758 8.035v4c8.572 0 15.818-3.232 20.877-9.531 5.014-6.244 7.714-15.294 7.714-26.68h-4zm-24.591 32.211c-7.512 0-13.56-2.778-17.775-8.034-4.26-5.312-6.816-13.367-6.816-24.177h-4c0 11.384 2.687 20.434 7.695 26.679 5.053 6.301 12.301 9.532 20.896 9.532v-4zm-24.591-32.211c0-10.809 2.556-18.864 6.816-24.176 4.215-5.256 10.263-8.034 17.775-8.034v-4c-8.595 0-15.843 3.231-20.896 9.532-5.008 6.245-7.695 15.295-7.695 26.678h4zm24.591-32.21c7.486 0 13.535 2.777 17.758 8.035 4.266 5.312 6.833 13.368 6.833 24.175h4c0-11.385-2.7-20.435-7.714-26.68-5.059-6.298-12.305-9.53-20.877-9.53v4z" fill="#000"/><mask id="b" style="mask-type:alpha" maskUnits="userSpaceOnUse" x="0" y="0" width="1920" height="647"><path d="m0 647 64-24.038c64-23.139 192-72.563 320-143.778 128-72.562 256-166.917 384-143.777 128 24.037 256 167.815 384 215.666 128 48.75 256-.674 384-83.795 128-83.122 256-204.434 320-263.518l64-59.982V0H0v647z" fill="#299626"/></mask><g mask="url(#b)"><path d="M639.087 488h-2v2h2v-2zm70.772 0v2h2v-2h-2zm0-18.256h2v-2h-2v2zm-48.63 0h-2v2h2v-2zm0-25.005v-2h-2v2h2zm44.795 0v2h2v-2h-2zm0-18.256h2v-2h-2v2zm-44.795 0h-2v2h2v-2zm0-24.955v-2h-2v2h2zm48.426 0v2h2v-2h-2zm0-18.255h2v-2h-2v2zm-70.568 0v-2h-2v2h2zm0 106.727h70.772v-4h-70.772v4zm72.772-2v-18.256h-4V488h4zm-2-20.256h-48.63v4h48.63v-4zm-46.63 2v-25.005h-4v25.005h4zm-2-23.005h44.795v-4h-44.795v4zm46.795-2v-18.256h-4v18.256h4zm-2-20.256h-44.795v4h44.795v-4zm-42.795 2v-24.955h-4v24.955h4zm-2-22.955h48.426v-4h-48.426v4zm50.426-2v-18.255h-4v18.255h4zm-2-20.255h-70.568v4h70.568v-4zm-72.568 2V488h4V383.273h-4zM727.259 488h-2v2h2v-2zm22.142 0v2h2v-2h-2zm0-37.125v-2h-2v2h2zm16.159 0 1.764-.943-.566-1.057h-1.198v2zM785.401 488l-1.764.943.565 1.057h1.199v-2zm24.443 0v2h3.372l-1.617-2.959-1.755.959zm-22.245-40.705-.788-1.837-2.021.867 1.054 1.93 1.755-.96zm-60.34-64.022v-2h-2v2h2zm22.142 49.807h-2v2h2v-2zm0-31.705v-2h-2v2h2zM727.259 490h22.142v-4h-22.142v4zm24.142-2v-37.125h-4V488h4zm-2-35.125h16.159v-4h-16.159v4zm14.395-1.057 19.841 37.125 3.527-1.886-19.84-37.125-3.528 1.886zM785.401 490h24.443v-4h-24.443v4zm26.198-2.959-22.245-40.705-3.51 1.919 22.245 40.704 3.51-1.918zm-23.211-37.908c12.72-5.459 19.723-16.611 19.723-31.65h-4c0 13.598-6.191 23.206-17.3 27.975l1.577 3.675zm19.723-31.65c0-10.862-3.603-19.983-10.49-26.376-6.87-6.377-16.787-9.834-29.044-9.834v4c11.521 0 20.371 3.241 26.323 8.766 5.935 5.509 9.211 13.494 9.211 23.444h4zm-39.534-36.21h-41.318v4h41.318v-4zm-43.318 2V488h4V383.273h-4zm26.142 49.807v-31.705h-4v31.705h4zm-2-29.705h14.931v-4h-14.931v4zm14.931 0c6.137 0 10.33 1.367 12.971 3.654 2.588 2.241 4.001 5.642 4.001 10.454h4c0-5.62-1.681-10.273-5.383-13.478-3.649-3.159-8.942-4.63-15.589-4.63v4zm16.972 14.108c0 4.78-1.407 8.035-3.957 10.153-2.622 2.177-6.794 3.444-12.912 3.444v4c6.564 0 11.826-1.342 15.468-4.367 3.714-3.086 5.401-7.629 5.401-13.23h-4zm-16.869 13.597h-15.034v4h15.034v-4zM821.759 488h-2v2h2v-2zm22.142 0v2h2v-2h-2zm0-37.125v-2h-2v2h2zm16.159 0 1.764-.943-.566-1.057h-1.198v2zM879.901 488l-1.764.943.565 1.057h1.199v-2zm24.443 0v2h3.372l-1.617-2.959-1.755.959zm-22.245-40.705-.788-1.837-2.021.867 1.054 1.93 1.755-.96zm-60.34-64.022v-2h-2v2h2zm22.142 49.807h-2v2h2v-2zm0-31.705v-2h-2v2h2zM821.759 490h22.142v-4h-22.142v4zm24.142-2v-37.125h-4V488h4zm-2-35.125h16.159v-4h-16.159v4zm14.395-1.057 19.841 37.125 3.527-1.886-19.84-37.125-3.528 1.886zM879.901 490h24.443v-4h-24.443v4zm26.198-2.959-22.245-40.705-3.51 1.919 22.245 40.704 3.51-1.918zm-23.211-37.908c12.72-5.459 19.723-16.611 19.723-31.65h-4c0 13.598-6.191 23.206-17.3 27.975l1.577 3.675zm19.723-31.65c0-10.862-3.603-19.983-10.49-26.376-6.87-6.377-16.787-9.834-29.044-9.834v4c11.521 0 20.371 3.241 26.323 8.766 5.935 5.509 9.211 13.494 9.211 23.444h4zm-39.534-36.21h-41.318v4h41.318v-4zm-43.318 2V488h4V383.273h-4zm26.142 49.807v-31.705h-4v31.705h4zm-2-29.705h14.931v-4h-14.931v4zm14.931 0c6.137 0 10.33 1.367 12.971 3.654 2.588 2.241 4.001 5.642 4.001 10.454h4c0-5.62-1.681-10.273-5.383-13.478-3.649-3.159-8.942-4.63-15.589-4.63v4zm16.972 14.108c0 4.78-1.407 8.035-3.957 10.153-2.622 2.177-6.794 3.444-12.912 3.444v4c6.564 0 11.826-1.342 15.468-4.367 3.714-3.086 5.401-7.629 5.401-13.23h-4zm-16.869 13.597h-15.034v4h15.034v-4zm155.565 4.556c0-17.55-5.46-31.527-14.666-41.13-9.209-9.603-22.012-14.665-36.377-14.665v4c13.403 0 25.12 4.705 33.489 13.434 8.374 8.73 13.554 21.651 13.554 38.361h4zm-51.043-55.795c-14.438 0-27.243 5.06-36.435 14.667-9.189 9.604-14.604 23.582-14.604 41.128h4c0-16.714 5.144-29.635 13.494-38.363 8.349-8.725 20.064-13.432 33.545-13.432v-4zm-51.039 55.795c0 17.472 5.416 31.448 14.603 41.07 9.189 9.624 21.993 14.726 36.436 14.726v-4c-13.477 0-25.192-4.742-33.543-13.489-8.353-8.749-13.496-21.671-13.496-38.307h-4zm51.039 55.796c14.365 0 27.168-5.062 36.377-14.666 9.206-9.602 14.666-23.579 14.666-41.13h-4c0 16.711-5.18 29.632-13.554 38.362-8.369 8.729-20.086 13.434-33.489 13.434v4zm24.591-55.796c0 10.808-2.567 18.863-6.833 24.176-4.223 5.258-10.272 8.035-17.758 8.035v4c8.572 0 15.818-3.232 20.877-9.531 5.014-6.244 7.714-15.294 7.714-26.68h-4zm-24.591 32.211c-7.512 0-13.56-2.778-17.775-8.034-4.26-5.312-6.816-13.367-6.816-24.177h-4c0 11.384 2.687 20.434 7.695 26.679 5.053 6.301 12.301 9.532 20.896 9.532v-4zm-24.591-32.211c0-10.809 2.556-18.864 6.816-24.176 4.215-5.256 10.263-8.034 17.775-8.034v-4c-8.595 0-15.843 3.231-20.896 9.532-5.008 6.245-7.695 15.295-7.695 26.678h4zm24.591-32.21c7.486 0 13.535 2.777 17.758 8.035 4.266 5.312 6.833 13.368 6.833 24.175h4c0-11.385-2.7-20.435-7.714-26.68-5.059-6.298-12.305-9.53-20.877-9.53v4zm124.393-20.153 2 .054.05-2.054h-2.05v2zm-22.76 0v-2h-2.06l.06 2.055 2-.055zm2.05 73.329-2 .056.05 1.944h1.95v-2zm18.71 0v2h1.95l.05-1.945-2-.055zm2.92 20.455 2 .015v-.03l-2 .015zm-24.55 0 2 .015v-.03l-2 .015zm23.63-95.784h-22.76v4h22.76v-4zm-24.76 2.055 2.05 73.33 4-.111-2.05-73.33-4 .111zm4.05 75.274h18.71v-4h-18.71v4zm20.71-1.945 2-73.33-4-.109-2 73.33 4 .109zm-11.36 34.673c7.64 0 14.22-6.351 14.28-14.258l-4-.03c-.05 5.695-4.82 10.288-10.28 10.288v4zm14.28-14.288c-.06-7.816-6.65-14.156-14.28-14.156v4c5.47 0 10.23 4.604 10.28 10.186l4-.03zm-14.28-14.156c-7.82 0-14.33 6.341-14.27 14.186l4-.03c-.04-5.553 4.6-10.156 10.27-10.156v-4zm-14.27 14.156c-.06 7.936 6.44 14.288 14.27 14.288v-4c-5.66 0-10.31-4.592-10.27-10.258l-4-.03zm91.64-93.769h2v-2h-2v2zm-20.81 0v-2h-.58l-.49.31 1.07 1.69zm-25.93 16.415-1.06-1.69-.94.589v1.101h2zm0 19.636h-2v3.614l3.07-1.92-1.07-1.694zm23.99-15.034v-2h-.58l-.48.305 1.06 1.695zm.61 0h2v-2h-2v2zm0 83.71h-2v2h2v-2zm22.14 0v2h2v-2h-2zm0-106.727h-20.81v4h20.81v-4zm-21.88.31-25.92 16.415 2.13 3.379 25.93-16.414-2.14-3.38zm-26.86 18.105v19.636h4v-19.636h-4zm3.07 21.33 23.98-15.034-2.12-3.389-23.99 15.034 2.13 3.389zm22.92-14.728h.61v-4h-.61v4zm-1.39-2V488h4v-83.71h-4zm2 85.71h22.14v-4h-22.14v4zm24.14-2V383.273h-4V488h4zm49.13-104.727 2 .054.05-2.054h-2.05v2zm-22.76 0v-2h-2.06l.06 2.055 2-.055zm2.05 73.329-2 .056.05 1.944h1.95v-2zm18.71 0v2h1.95l.05-1.945-2-.055zm2.92 20.455 2 .015v-.03l-2 .015zm-24.55 0 2 .015v-.03l-2 .015zm23.63-95.784h-22.76v4h22.76v-4zm-24.76 2.055 2.05 73.33 4-.111-2.05-73.33-4 .111zm4.05 75.274h18.71v-4h-18.71v4zm20.71-1.945 2-73.33-4-.109-2 73.33 4 .109zm-11.36 34.673c7.64 0 14.22-6.351 14.28-14.258l-4-.03c-.05 5.695-4.82 10.288-10.28 10.288v4zm14.28-14.288c-.06-7.816-6.65-14.156-14.28-14.156v4c5.47 0 10.24 4.604 10.28 10.186l4-.03zm-14.28-14.156c-7.82 0-14.33 6.341-14.27 14.186l4-.03c-.04-5.553 4.6-10.156 10.27-10.156v-4zm-14.27 14.156c-.06 7.936 6.44 14.288 14.27 14.288v-4c-5.66 0-10.31-4.592-10.27-10.258l-4-.03zm72.31-93.769 2 .054.06-2.054h-2.06v2zm-22.75 0v-2h-2.06l.06 2.055 2-.055zm2.04 73.329-1.99.056.05 1.944h1.94v-2zm18.72 0v2h1.95l.05-1.945-2-.055zm2.92 20.455 2 .015v-.03l-2 .015zm-24.55 0 2 .015v-.03l-2 .015zm23.62-95.784h-22.75v4h22.75v-4zm-24.75 2.055 2.05 73.33 3.99-.111-2.04-73.33-4 .111zm4.04 75.274h18.72v-4h-18.72v4zm20.72-1.945 1.99-73.33-3.99-.109-2 73.33 4 .109zm-11.36 34.673c7.64 0 14.22-6.351 14.28-14.258l-4-.03c-.05 5.695-4.82 10.288-10.28 10.288v4zm14.28-14.288c-.06-7.816-6.65-14.156-14.28-14.156v4c5.47 0 10.23 4.604 10.28 10.186l4-.03zm-14.28-14.156c-7.82 0-14.33 6.341-14.27 14.186l4-.03c-.04-5.553 4.6-10.156 10.27-10.156v-4zm-14.27 14.156c-.06 7.936 6.44 14.288 14.27 14.288v-4c-5.66 0-10.31-4.592-10.27-10.258l-4-.03z" fill="#F0F0F0"/></g></g><defs><clipPath id="a"><path fill="#fff" d="M0 0h1920v629H0z"/></clipPath></defs></svg>